<?xml version="1.0" encoding="UTF-8"?>
<svg xmlns="http://www.w3.org/2000/svg" xmlns:xlink="http://www.w3.org/1999/xlink" width="50px" height="50px" viewBox="0 0 50 50" version="1.1">
<g id="surface1">
<path style=" stroke:none;fill-rule:nonzero;fill:rgb(30.196078%,38.039216%,98.823529%);fill-opacity:1;" d="M 18.378906 36.488281 C 14.191406 34.089844 11.601562 29.636719 11.59375 24.808594 C 11.613281 18.144531 16.46875 12.480469 23.050781 11.449219 L 21.863281 12.640625 C 21.246094 13.277344 21.246094 14.292969 21.863281 14.933594 C 22.167969 15.234375 22.578125 15.40625 23.007812 15.417969 C 23.4375 15.40625 23.847656 15.234375 24.152344 14.933594 L 28.296875 10.789062 C 28.910156 10.148438 28.910156 9.136719 28.296875 8.496094 L 24.152344 4.351562 C 23.511719 3.734375 22.5 3.734375 21.863281 4.351562 C 21.246094 4.992188 21.246094 6.003906 21.863281 6.644531 L 23.316406 8.097656 C 14.785156 9.015625 8.320312 16.226562 8.332031 24.808594 C 8.339844 30.8125 11.546875 36.355469 16.75 39.355469 C 16.992188 39.488281 17.265625 39.566406 17.542969 39.578125 C 18.128906 39.570312 18.667969 39.25 18.953125 38.734375 C 19.1875 38.363281 19.257812 37.914062 19.148438 37.488281 C 19.039062 37.0625 18.761719 36.703125 18.378906 36.488281 Z M 18.378906 36.488281 "/>
<path style=" stroke:none;fill-rule:nonzero;fill:rgb(30.196078%,38.039216%,98.823529%);fill-opacity:1;" d="M 41.914062 24.808594 C 41.882812 18.820312 38.699219 13.292969 33.539062 10.257812 C 32.746094 9.816406 31.746094 10.09375 31.292969 10.875 C 30.851562 11.667969 31.125 12.667969 31.910156 13.125 C 36.082031 15.535156 38.652344 19.988281 38.652344 24.808594 C 38.632812 31.46875 33.777344 37.132812 27.195312 38.164062 L 28.382812 36.976562 C 29 36.335938 29 35.324219 28.382812 34.683594 C 27.746094 34.066406 26.730469 34.066406 26.09375 34.683594 L 21.949219 38.828125 C 21.332031 39.464844 21.332031 40.480469 21.949219 41.117188 L 26.09375 45.261719 C 26.398438 45.566406 26.808594 45.738281 27.238281 45.746094 C 27.667969 45.738281 28.078125 45.566406 28.382812 45.261719 C 29 44.625 29 43.609375 28.382812 42.96875 L 26.882812 41.46875 C 35.410156 40.5625 41.886719 33.378906 41.910156 24.804688 Z M 41.914062 24.808594 "/>
<path style=" stroke:none;fill-rule:nonzero;fill:rgb(30.196078%,38.039216%,98.823529%);fill-opacity:1;" d="M 20.582031 23.484375 C 19.941406 22.867188 18.929688 22.867188 18.289062 23.484375 C 17.671875 24.125 17.671875 25.136719 18.289062 25.777344 L 22.210938 29.699219 C 22.515625 30 22.925781 30.175781 23.355469 30.183594 C 23.785156 30.175781 24.195312 30 24.503906 29.699219 L 31.992188 22.203125 C 32.609375 21.566406 32.609375 20.550781 31.992188 19.914062 C 31.355469 19.296875 30.339844 19.296875 29.703125 19.914062 L 23.3125 26.261719 Z M 20.582031 23.484375 "/>
</g>
</svg>
